<?xml version="1.0" encoding="utf-8"?>
<!-- Generator: Adobe Illustrator 15.0.2, SVG Export Plug-In . SVG Version: 6.00 Build 0)  -->
<!DOCTYPE svg PUBLIC "-//W3C//DTD SVG 1.1 Tiny//EN" "http://www.w3.org/Graphics/SVG/1.1/DTD/svg11-tiny.dtd">
<svg version="1.1" baseProfile="tiny" id="Layer_1" xmlns="http://www.w3.org/2000/svg" xmlns:xlink="http://www.w3.org/1999/xlink"
	 x="0px" y="0px" viewBox="0 0 40.70 70.40" overflow="inherit" xml:space="preserve">
<path fill-rule="evenodd" fill="#5E7699" d="M5.068,0c2.799,0,5.068,2.269,5.068,5.068c0,2.799-2.269,5.068-5.068,5.068
	C2.269,10.136,0,7.867,0,5.068C0,2.269,2.269,0,5.068,0z"/>
<path fill-rule="evenodd" fill="#5E7699" d="M21.394,35.313c9.565,0,17.32,7.754,17.32,17.319c0,9.565-7.754,17.319-17.32,17.319
	c-9.565,0-17.319-7.754-17.319-17.319C4.075,43.068,11.829,35.313,21.394,35.313z"/>
<path fill-rule="evenodd" fill="#5E7699" d="M11.545,14.822c4.672,0,8.46,3.788,8.46,8.46c0,4.673-3.788,8.461-8.46,8.461
	c-4.673,0-8.46-3.788-8.46-8.461C3.084,18.61,6.872,14.822,11.545,14.822z"/>
</svg>
