<?xml version="1.0" encoding="utf-8"?>
<!-- Generator: Adobe Illustrator 16.0.0, SVG Export Plug-In . SVG Version: 6.00 Build 0)  -->
<!DOCTYPE svg PUBLIC "-//W3C//DTD SVG 1.1//EN" "http://www.w3.org/Graphics/SVG/1.1/DTD/svg11.dtd">
<svg version="1.1" id="Layer_1" xmlns="http://www.w3.org/2000/svg" xmlns:xlink="http://www.w3.org/1999/xlink" x="0px" y="0px"
	 viewBox="0 0 190 45" enable-background="new 0 0 190 45" xml:space="preserve">
<g>
	<path fill="#5e7698" d="M41.607,17.459c-2.854,0-5.175,2.321-5.175,5.175v20.945h10.351V22.634
		C46.783,19.78,44.461,17.459,41.607,17.459z"/>
	<path fill="#5e7698" d="M26.54,17.459c-2.854,0-5.175,2.321-5.175,5.175v20.945h10.352V22.634
		C31.716,19.78,29.394,17.459,26.54,17.459z"/>
	<path fill="#5e7698" d="M41.806,0.96c-5.188,0-9.951,1.818-13.689,4.849c-0.552-0.056-1.111-0.084-1.678-0.084
		c-8.178,0-14.958,5.922-16.326,13.709c-4.842,1.479-8.387,6.211-8.387,11.834c0,6.759,5.123,12.238,11.467,12.311h3.459V22.634
		c0-5.453,4.437-9.888,9.889-9.888c3.022,0,5.724,1.367,7.537,3.508c1.813-2.141,4.511-3.508,7.53-3.508
		c5.453,0,9.889,4.435,9.889,9.888v19.582c7.157-3.564,12.079-10.949,12.079-19.487C63.575,10.707,53.828,0.96,41.806,0.96z"/>
</g>
<g>
	<path fill="#FFFFFF" d="M88.853,41.426c-1.735,0.316-4.104,0.58-6.579,0.58c-7.158,0-11.211-5.054-11.211-12.79v-4.104
		c0-7.738,4.001-12.791,11.211-12.791c2.421,0,4.843,0.264,6.579,0.579c0.842,0.157,1.053,0.421,1.053,1.158v1.895
		c0,0.526-0.422,0.789-0.895,0.789c-0.105,0-0.158,0-0.21,0c-2.316-0.263-3.947-0.369-6.527-0.369c-4.211,0-6.579,2.79-6.579,8.738
		v4.104c0,5.896,2.315,8.738,6.579,8.738c2.58,0,4.211-0.107,6.527-0.371c0.052,0,0.104,0,0.21,0c0.473,0,0.895,0.264,0.895,0.792
		v1.895C89.906,40.952,89.695,41.269,88.853,41.426z"/>
	<path fill="#FFFFFF" d="M100.01,41.637h-2.736c-0.526,0-0.948-0.471-0.948-1.052V3.057c0-0.526,0.37-1,0.948-1h2.736
		c0.528,0,0.948,0.421,0.948,1v37.528C100.958,41.109,100.59,41.637,100.01,41.637z"/>
	<path fill="#FFFFFF" d="M119.378,42.006c-7.736,0-11.684-5.104-11.684-12.842v-4c0-7.738,3.947-12.843,11.684-12.843
		c7.738,0,11.738,5.105,11.738,12.843v4C131.117,36.901,127.117,42.006,119.378,42.006z M126.486,25.164
		c0-5.369-2.159-8.791-7.107-8.791c-4.895,0-7.051,3.369-7.051,8.791v4c0,5.368,2.104,8.791,7.051,8.791
		c4.897,0,7.107-3.368,7.107-8.791V25.164z"/>
	<path fill="#FFFFFF" d="M158.485,41.637h-2.633c-0.576,0-1-0.471-1-1.052v-1.001c-2.894,1.634-5.261,2.422-8.366,2.422
		c-6.317,0-9.158-3.947-9.158-10.948V13.742c0-0.579,0.474-1.052,1.05-1.052h2.528c0.578,0,1.053,0.474,1.053,1.052v17.316
		c0,5.316,1.789,6.947,5.789,6.947c2.211,0,4.684-0.843,7.104-2.052V13.742c0-0.526,0.475-1.052,1.053-1.052h2.58
		c0.526,0,0.999,0.474,0.999,1.052v26.843C159.484,41.166,159.063,41.637,158.485,41.637z"/>
	<path fill="#FFFFFF" d="M186.853,41.109c-3.265,0.633-6.475,0.896-9.685,0.896c-7.842,0-11.474-5.104-11.474-13.001v-3.789
		c0-8.264,3.788-12.895,11.474-12.895c1.63,0,4.105,0.157,6.159,0.526V3.057c0-0.526,0.42-1,0.998-1h2.687
		c0.525,0,0.945,0.421,0.945,1V39.9C187.958,40.585,187.799,40.952,186.853,41.109z M183.328,16.742
		c-1.737-0.316-4.474-0.369-6.159-0.369c-5.158,0-6.842,3.211-6.842,8.843v3.789c0,5.737,1.632,8.949,6.842,8.949
		c1.79,0,4.367-0.159,6.159-0.317V16.742z"/>
</g>
</svg>
